<svg xmlns="http://www.w3.org/2000/svg" data-name="Layer 1" viewBox="0 0 100 100" x="0px" y="0px"><title>Artboard 2</title><path d="M20.94,15.07a2,2,0,0,1,4.07,0V23L37.22,37.45a101.82,101.82,0,0,0-2-18.59C32.78,9.48,27.61,7.45,23.55,7.45A10.88,10.88,0,0,0,19.84,8C15.21,9.74,7.46,14.42,7.46,26.77a100.32,100.32,0,0,0,3,22.15L20.94,23.31Zm17.25,38.8c-.28-3.1-.49-6.41-.65-9.71l-14-16.54L12.11,55.55c2.44,8.87,5.33,16.83,7.16,22l1.16,3.26c2.83,8.22,6.17,11.72,11.15,11.72a11.06,11.06,0,0,0,11-11,55,55,0,0,0-1-6A209.46,209.46,0,0,1,38.19,53.87ZM80.08,8a11.08,11.08,0,0,0-3.65-.59c-4,0-9.21,2-11.63,11.41a101.82,101.82,0,0,0-2,18.59L75,23v-7.9a2,2,0,0,1,4.07,0v8.26L89.53,48.92h0a100.28,100.28,0,0,0,2.93-22.15C92.5,14.44,84.71,9.74,80.08,8ZM62.38,44.12c-.16,3.3-.37,6.61-.65,9.7a214.74,214.74,0,0,1-3.36,21.71,54.14,54.14,0,0,0-1,6,11,11,0,0,0,11.05,11c5,0,8.32-3.56,11.15-11.69l1.16-3.26h0c1.81-5.2,4.69-13.16,7.18-22L76.43,27.62Z"></path></svg>