<?xml version="1.0" encoding="UTF-8" standalone="no"?><!DOCTYPE svg PUBLIC "-//W3C//DTD SVG 1.1//EN" "http://www.w3.org/Graphics/SVG/1.1/DTD/svg11.dtd"><svg width="100%" height="100%" viewBox="0 0 100 100" version="1.1" xmlns="http://www.w3.org/2000/svg" xmlns:xlink="http://www.w3.org/1999/xlink" xml:space="preserve" xmlns:serif="http://www.serif.com/" style="fill-rule:evenodd;clip-rule:evenodd;stroke-linecap:round;stroke-linejoin:round;stroke-miterlimit:1.5;"><path d="M50,0c27.596,0 50,22.404 50,50c0,27.596 -22.404,50 -50,50c-27.596,0 -50,-22.404 -50,-50c0,-27.596 22.404,-50 50,-50Zm18.694,25.783l0,-11.528c-1.176,-0.155 -5.226,-0.509 -9.942,-0.509c-9.842,0 -16.584,6.004 -16.584,17.036l0,10.154l-10.862,0l0,12.888l10.862,0l0,32.43l13.313,0l0,-32.43l10.423,0l1.657,-12.888l-12.08,0l0,-8.879c0,-3.718 1.03,-6.264 6.387,-6.274l6.826,0Z" style="stroke:#ececec;stroke-width:1px;"/></svg>