<?xml version="1.0" encoding="UTF-8" standalone="no"?><!DOCTYPE svg PUBLIC "-//W3C//DTD SVG 1.1//EN" "http://www.w3.org/Graphics/SVG/1.1/DTD/svg11.dtd"><svg width="100%" height="100%" viewBox="0 0 100 100" version="1.1" xmlns="http://www.w3.org/2000/svg" xmlns:xlink="http://www.w3.org/1999/xlink" xml:space="preserve" xmlns:serif="http://www.serif.com/" style="fill-rule:evenodd;clip-rule:evenodd;stroke-linecap:round;stroke-linejoin:round;stroke-miterlimit:1.5;"><path d="M50,0c27.596,0 50,22.404 50,50c0,27.596 -22.404,50 -50,50c-27.596,0 -50,-22.404 -50,-50c0,-27.596 22.404,-50 50,-50Zm29.063,37.933c-0.222,-4.688 -1.292,-8.841 -4.727,-12.262c-3.422,-3.422 -7.574,-4.493 -12.263,-4.728c-4.832,-0.274 -19.314,-0.274 -24.146,0c-4.676,0.222 -8.828,1.293 -12.263,4.715c-3.435,3.421 -4.492,7.574 -4.727,12.262c-0.275,4.832 -0.275,19.315 0,24.147c0.222,4.688 1.292,8.841 4.727,12.262c3.435,3.422 7.574,4.493 12.263,4.728c4.832,0.274 19.314,0.274 24.146,0c4.689,-0.222 8.841,-1.293 12.263,-4.728c3.421,-3.421 4.492,-7.574 4.727,-12.262c0.275,-4.832 0.275,-19.302 0,-24.134Zm-6.242,29.318c-1.019,2.56 -2.991,4.532 -5.563,5.564c-3.853,1.527 -12.994,1.175 -17.251,1.175c-4.258,0 -13.412,0.339 -17.252,-1.175c-2.559,-1.019 -4.531,-2.991 -5.563,-5.564c-1.528,-3.852 -1.175,-12.994 -1.175,-17.251c0,-4.257 -0.34,-13.412 1.175,-17.251c1.019,-2.56 2.991,-4.532 5.563,-5.564c3.853,-1.527 12.994,-1.175 17.252,-1.175c4.257,0 13.411,-0.339 17.251,1.175c2.559,1.019 4.531,2.991 5.563,5.564c1.528,3.852 1.175,12.994 1.175,17.251c0,4.257 0.353,13.412 -1.175,17.251Zm-22.814,-32.256c-8.306,0 -15.006,6.699 -15.006,15.005c0,8.306 6.7,15.005 15.006,15.005c8.305,0 15.005,-6.699 15.005,-15.005c0,-8.306 -6.7,-15.005 -15.005,-15.005Zm0,24.76c-5.368,0 -9.756,-4.375 -9.756,-9.755c0,-5.38 4.375,-9.755 9.756,-9.755c5.38,0 9.755,4.375 9.755,9.755c0,5.38 -4.388,9.755 -9.755,9.755Zm19.118,-25.374c0,1.946 -1.567,3.5 -3.5,3.5c-1.945,0 -3.499,-1.567 -3.499,-3.5c0,-1.933 1.567,-3.5 3.499,-3.5c1.933,0 3.5,1.567 3.5,3.5Z" style="stroke:#ececec;stroke-width:1px;"/></svg>