<?xml version="1.0" encoding="UTF-8" standalone="no"?><!DOCTYPE svg PUBLIC "-//W3C//DTD SVG 1.1//EN" "http://www.w3.org/Graphics/SVG/1.1/DTD/svg11.dtd"><svg width="100%" height="100%" viewBox="0 0 100 100" version="1.1" xmlns="http://www.w3.org/2000/svg" xmlns:xlink="http://www.w3.org/1999/xlink" xml:space="preserve" xmlns:serif="http://www.serif.com/" style="fill-rule:evenodd;clip-rule:evenodd;stroke-linecap:round;stroke-linejoin:round;stroke-miterlimit:1.5;"><path d="M50,0c27.596,0 50,22.404 50,50c0,27.596 -22.404,50 -50,50c-27.596,0 -50,-22.404 -50,-50c0,-27.596 22.404,-50 50,-50Zm26.86,36.163l-15.226,-12.233c-2.489,-1.989 -6.744,-6.289 -11.634,-6.289c-4.864,0 -9.078,4.246 -11.634,6.289c-2.754,2.189 -14.756,11.843 -15.215,12.22c-1.248,1.026 -1.972,2.559 -1.972,4.175l0,29.554c0,2.985 2.419,5.404 5.404,5.404l46.834,0c2.985,0 5.404,-2.419 5.404,-5.404l0,-29.552c0,-1.593 -0.705,-3.106 -1.961,-4.164Zm-4.118,33.716l-45.484,0c-0.37,0 -0.675,-0.305 -0.675,-0.675l0,-28.557c0,-0.204 0.092,-0.397 0.251,-0.525c1.786,-1.443 12.248,-9.857 14.901,-11.967c2.045,-1.633 5.608,-5.11 8.265,-5.11c2.667,0 6.288,3.532 8.265,5.11c2.654,2.11 13.116,10.526 14.902,11.969c0.158,0.128 0.25,0.322 0.25,0.525l0,28.555c0,0.354 -0.278,0.648 -0.675,0.675Zm-2.927,-21.807l-1.717,-2.086c-0.471,-0.571 -1.313,-0.658 -1.889,-0.195c-3.222,2.59 -6.594,5.295 -7.944,6.369c-2.045,1.633 -5.608,5.11 -8.265,5.11c-2.667,0 -6.288,-3.532 -8.265,-5.11c-1.35,-1.074 -4.722,-3.779 -7.943,-6.369c-0.577,-0.463 -1.419,-0.377 -1.889,0.194l-1.718,2.086c-0.478,0.581 -0.39,1.441 0.196,1.912c3.286,2.64 6.716,5.393 7.985,6.402c2.483,1.984 6.742,6.289 11.634,6.289c4.864,0 9.078,-4.246 11.634,-6.289c1.312,-1.043 4.723,-3.78 7.985,-6.402c0.587,-0.471 0.675,-1.331 0.196,-1.911Z" style="stroke:#ececec;stroke-width:1px;"/></svg>